<svg xmlns="http://www.w3.org/2000/svg" width="28.46" height="28.318" viewBox="0 0 28.46 28.318">
  <g id="Group_2036" data-name="Group 2036" transform="translate(-57.844 -26.832)">
    <g id="Group_1860" data-name="Group 1860" transform="translate(-1688.202 -464.172)">
      <g id="_Icons_14_Comment_5" data-name="_Icons / 14 Comment_5" transform="translate(1747.203 482.94)">
        <path id="_14_Comment_5" data-name="14 Comment_5" d="M13.132,5.833A13.147,13.147,0,0,0,1.994,25.941L.116,30.38a1.252,1.252,0,0,0,1.64,1.64L6.2,30.142a13.147,13.147,0,1,0,6.937-24.31Z" transform="translate(-0.001 3.232)" fill="none" stroke="#75c9db" stroke-width="2"/>
      </g>
      <path id="Path" d="M9.047,2.413H1.206A1.206,1.206,0,1,1,1.206,0H9.047a1.206,1.206,0,1,1,0,2.413Z" transform="translate(1755.083 506.655)" fill="#75c9db" stroke="rgba(0,0,0,0)" stroke-width="2"/>
      <path id="Path-2" data-name="Path" d="M12.063,2.413H1.206A1.206,1.206,0,1,1,1.206,0H12.063a1.206,1.206,0,1,1,0,2.413Z" transform="translate(1755.083 501.227)" fill="#75c9db" stroke="rgba(0,0,0,0)" stroke-width="2"/>
    </g>
  </g>
</svg>
 