<?xml version="1.0" encoding="UTF-8"?>
<svg version="1.1" xmlns="http://www.w3.org/2000/svg" width="500" height="500">
<path d="M0 0 C2.4375 3 2.4375 3 4 6 C4.99 6.2475 4.99 6.2475 6 6.5 C9.2653068 7.3163267 10.19794689 10.29692034 12 13 C13.32594105 13.36162029 14.65938457 13.69728039 16 14 C16.474375 14.804375 16.94875 15.60875 17.4375 16.4375 C18.76918994 19.19737684 18.76918994 19.19737684 21.5 20 C24.75112106 21.30044843 25.26208593 23.05310222 27 26 C27.9590625 26.2165625 27.9590625 26.2165625 28.9375 26.4375 C32.2384595 27.33776168 33.16171865 30.24257798 35 33 C36.32594105 33.36162029 37.65938457 33.69728039 39 34 C39.474375 34.804375 39.94875 35.60875 40.4375 36.4375 C41.76918994 39.19737684 41.76918994 39.19737684 44.5 40 C47 41 47 41 48.15126038 43.5252533 C49.8529964 46.39517011 49.8529964 46.39517011 53.56077576 46.61231995 C55.0670047 46.63238798 56.57374808 46.62481988 58.07983398 46.59594727 C59.31443359 46.60203506 59.31443359 46.60203506 60.57397461 46.60824585 C62.36151069 46.61376772 64.14911097 46.60774145 65.93658257 46.59158516 C68.76540141 46.56623321 71.59275821 46.57094008 74.42164612 46.58348083 C80.42709041 46.60426047 86.43208527 46.5845268 92.4375 46.5625 C99.39243825 46.5414135 106.34690785 46.5368019 113.30183601 46.56300163 C116.08961224 46.56636823 118.87649873 46.54511913 121.66416931 46.52259827 C123.37303868 46.52510937 125.08190695 46.52866924 126.79077148 46.53344727 C127.56649002 46.52056168 128.34220856 46.50767609 129.14143372 46.49440002 C132.64031149 46.52706074 134.61508963 46.71073183 137.45057678 48.84165955 C140.26414545 52.76094964 140.14712703 56.16096743 140.20532227 60.8581543 C140.21522186 61.55109589 140.22512146 62.24403748 140.23532104 62.95797729 C140.2668896 65.24668978 140.29167503 67.53542301 140.31640625 69.82421875 C140.33697979 71.41177406 140.35797637 72.99932394 140.37937927 74.58686829 C140.43455861 78.76416628 140.48398612 82.94151337 140.53222656 87.11889648 C140.5824718 91.38204312 140.63814209 95.6451185 140.69335938 99.90820312 C140.80089034 108.27207516 140.90234653 116.63600683 141 125 C141.78246094 125.26683594 142.56492187 125.53367187 143.37109375 125.80859375 C146.89555624 127.4058613 147.902972 129.82063497 150 133 C151.32594105 133.36162029 152.65938457 133.69728039 154 134 C155 135.66666667 156 137.33333333 157 139 C157.639375 139.144375 158.27875 139.28875 158.9375 139.4375 C162.2384595 140.33776168 163.16171865 143.24257798 165 146 C166.32594105 146.36162029 167.65938457 146.69728039 169 147 C169.474375 147.804375 169.94875 148.60875 170.4375 149.4375 C171.76918994 152.19737684 171.76918994 152.19737684 174.5 153 C177.75112106 154.30044843 178.26208593 156.05310222 180 159 C180.63372276 159.14524077 181.26744553 159.29048155 181.92037201 159.44012356 C184.6269327 160.16878252 185.22982838 161.03965334 186.71154785 163.39552307 C190.54026393 170.87575183 189.67887461 179.48641211 189.61523438 187.67163086 C189.61873895 189.56804399 189.62440132 191.46445416 189.63204956 193.3608551 C189.64625968 198.49325788 189.62927223 203.62512244 189.60576439 208.75747371 C189.58560476 214.13930318 189.59153766 219.5211114 189.59387207 224.90296936 C189.59381855 233.94052973 189.57409302 242.97788068 189.54199219 252.01538086 C189.50511288 262.44858206 189.49631573 272.88150894 189.5032897 283.31476682 C189.509606 293.36933703 189.49881882 303.42381364 189.47932434 313.47836494 C189.47117168 317.7488495 189.46843687 322.01928608 189.47001648 326.28977776 C189.47089867 331.32385533 189.4565894 336.35767428 189.43078995 341.39168358 C189.42365821 343.23385616 189.42153002 345.07605631 189.42490768 346.91823959 C189.44467717 360.24765665 188.89669946 370.50705895 180 381 C178.948125 382.36125 178.948125 382.36125 177.875 383.75 C174.22694223 388.12766933 171.23270709 391.69752602 165.32064801 392.25069833 C164.28813073 392.25102303 163.25561344 392.25134774 162.19180775 392.25168228 C160.99807256 392.25689778 159.80433736 392.26211327 158.57442838 392.26748681 C157.26151451 392.26302537 155.94860063 392.25856392 154.59590149 392.25396729 C153.18818014 392.25627113 151.78045998 392.25944714 150.37274235 392.26342177 C146.49978444 392.27178939 142.62692478 392.26763555 138.75396645 392.26144934 C134.5786313 392.25693367 130.40331333 392.26390434 126.22798157 392.26940918 C118.04525573 392.27831547 109.86256652 392.27637534 101.67983923 392.2705839 C95.02812022 392.26607073 88.37641149 392.26545302 81.72469139 392.26763153 C80.77865831 392.267938 79.83262523 392.26824446 78.85792449 392.26856022 C76.9361282 392.26919966 75.01433192 392.26984809 73.09253564 392.2705054 C55.05805154 392.27621271 37.02358775 392.26964532 18.98910698 392.25890467 C3.51852532 392.24997602 -11.95202631 392.25151475 -27.42260742 392.26074219 C-45.38394805 392.27145021 -63.34527084 392.27565573 -81.30661422 392.26951766 C-83.222947 392.26888056 -85.13927978 392.26825182 -87.05561256 392.26763153 C-87.99849192 392.26732298 -88.94137127 392.26701443 -89.91282272 392.26669653 C-96.55311448 392.26497065 -103.19339492 392.26788255 -109.83368492 392.27259064 C-117.93134068 392.27820569 -126.02895766 392.27667017 -134.12660899 392.26602915 C-138.25729197 392.26077975 -142.38791036 392.25870313 -146.51859283 392.26532745 C-150.30306417 392.27130461 -154.08741131 392.26798271 -157.87187145 392.25737235 C-159.88315157 392.25409414 -161.89444037 392.2605937 -163.90571135 392.26748681 C-170.60710554 392.2385244 -176.52592895 391.74776879 -183 390 C-184.11375 389.731875 -185.2275 389.46375 -186.375 389.1875 C-189.74874346 387.66128272 -190.24093773 386.23667458 -192 383 C-193.1469388 381.69078448 -194.31583058 380.40063971 -195.5 379.125 C-201.90520774 371.94954576 -203.14549049 364.5159479 -203.16062927 355.08757019 C-203.16571709 354.29673343 -203.17080491 353.50589668 -203.17604691 352.69109517 C-203.19172797 350.04430926 -203.20028485 347.39755057 -203.20874023 344.75073242 C-203.21828197 342.85166757 -203.22817327 340.95260444 -203.23838806 339.05354309 C-203.26972776 332.82087252 -203.2900306 326.58818877 -203.30859375 320.35546875 C-203.31189107 319.29456724 -203.31518839 318.23366574 -203.31858563 317.1406157 C-203.34935726 307.13391048 -203.37606045 297.1272022 -203.39300442 287.12046337 C-203.41492273 274.32709001 -203.45693214 261.53413564 -203.52644199 248.74092978 C-203.5736796 239.74120538 -203.59793741 230.74159407 -203.6052013 221.74174958 C-203.61015656 216.36797152 -203.62522679 210.99466621 -203.6649456 205.62102318 C-203.70182235 200.56556256 -203.7102181 195.51084456 -203.69693947 190.45527458 C-203.69699339 188.60254698 -203.70728033 186.74978635 -203.7286911 184.89718246 C-203.91411553 167.94355787 -203.91411553 167.94355787 -198.48330784 162.38774586 C-197.99381625 161.92978972 -197.50432467 161.47183359 -197 161 C-196.34 160.01 -195.68 159.02 -195 158 C-194.38125 157.896875 -193.7625 157.79375 -193.125 157.6875 C-190.63473516 157.12474627 -190.63473516 157.12474627 -189 154 C-186.7629196 150.6443794 -186.57482962 150.80721959 -183 150 C-182.505 149.175 -182.01 148.35 -181.5 147.5 C-181.005 146.675 -180.51 145.85 -180 145 C-179.360625 144.855625 -178.72125 144.71125 -178.0625 144.5625 C-175.61789145 144.13834965 -175.61789145 144.13834965 -174 141 C-171.7629196 137.6443794 -171.57482962 137.80721959 -168 137 C-167.525625 136.195625 -167.05125 135.39125 -166.5625 134.5625 C-164.65710802 131.43765716 -163.30203407 131.32081363 -160 130 C-158.97695052 128.34738161 -157.97383946 126.68208635 -157 125 C-156.01 125 -155.02 125 -154 125 C-153.99413376 124.12383026 -153.98826752 123.24766052 -153.98222351 122.34494019 C-153.9242502 114.07615726 -153.85214684 105.80764312 -153.76428509 97.53912163 C-153.71961279 93.28847027 -153.68034987 89.03791406 -153.65356445 84.78710938 C-153.62749995 80.68260348 -153.58707561 76.57846434 -153.53681374 72.47418594 C-153.52016623 70.91060076 -153.50863878 69.34695217 -153.50238609 67.78329086 C-153.49272162 65.58804897 -153.46463644 63.39374088 -153.43237305 61.19873047 C-153.42126999 59.95074677 -153.41016693 58.70276306 -153.39872742 57.41696167 C-152.96039944 53.66063634 -151.96559185 51.21360425 -150 48 C-146.92745579 46.46372789 -143.69763114 46.8381413 -140.32495117 46.82641602 C-139.5328978 46.819729 -138.74084442 46.81304199 -137.92478943 46.80615234 C-136.20164221 46.79208605 -134.47847618 46.78019704 -132.75530052 46.77020454 C-130.02749709 46.75381328 -127.29983253 46.73057527 -124.57209778 46.70530701 C-116.81530668 46.63448612 -109.05845821 46.57444964 -101.30151367 46.52319336 C-96.55939147 46.49137745 -91.8174276 46.45009255 -87.07543373 46.40299797 C-85.26817998 46.38699047 -83.46088974 46.37466312 -81.65358543 46.36609077 C-79.12330459 46.35391838 -76.59339485 46.32975965 -74.06323242 46.30297852 C-72.94476929 46.3020948 -72.94476929 46.3020948 -71.80371094 46.30119324 C-67.79023746 46.24498661 -64.55490743 45.93465851 -61 44 C-60.2575 42.7625 -60.2575 42.7625 -59.5 41.5 C-57.64887617 38.41479361 -56.25072177 38.30028871 -53 37 C-51.98812105 35.34051852 -50.9873454 33.67419438 -50 32 C-49.360625 31.855625 -48.72125 31.71125 -48.0625 31.5625 C-45.61789145 31.13834965 -45.61789145 31.13834965 -44 28 C-41.7629196 24.6443794 -41.57482962 24.80721959 -38 24 C-37.2575 22.7625 -37.2575 22.7625 -36.5 21.5 C-35.7575 20.2625 -35.7575 20.2625 -35 19 C-34.360625 18.855625 -33.72125 18.71125 -33.0625 18.5625 C-30.61789145 18.13834965 -30.61789145 18.13834965 -29 15 C-26.7629196 11.6443794 -26.57482962 11.80721959 -23 11 C-22.525625 10.195625 -22.05125 9.39125 -21.5625 8.5625 C-19.66809407 5.45567427 -18.29825384 5.26855917 -15 4 C-13.79117904 1.99983534 -13.79117904 1.99983534 -13 0 C-9.04322671 -1.97838665 -4.1769435 -1.03647781 0 0 Z M-7 20 C-9.12038635 22.61514317 -11.13091744 25.19637616 -13 28 C-13.639375 28.12375 -14.27875 28.2475 -14.9375 28.375 C-17.28023047 28.8329186 -17.28023047 28.8329186 -18.5 31.5 C-20 34 -20 34 -22 34.5625 C-22.66 34.706875 -23.32 34.85125 -24 35 C-25.67632805 36.92467295 -26.86068384 38.72136768 -28 41 C-28.639375 41.12375 -29.27875 41.2475 -29.9375 41.375 C-32.18582126 41.80940752 -32.18582126 41.80940752 -33.25 44 C-34.05852057 45.80005471 -34.05852057 45.80005471 -34 47 C-15.85 47 2.3 47 21 47 C21 46.01 21 45.02 21 44 C18.1315587 41.89767656 18.1315587 41.89767656 15 41 C14.3162955 39.67532254 13.65035814 38.34136367 13 37 C10.1315587 34.89767656 10.1315587 34.89767656 7 34 C6.71125 33.360625 6.4225 32.72125 6.125 32.0625 C5.14866414 29.75145455 5.14866414 29.75145455 2.5 29 C-0.58730657 27.76507737 -0.6313759 26.90832622 -2 24 C-4.53442406 21.77183014 -4.53442406 21.77183014 -7 20 Z M-148 48 C-148 48.33 -148 48.66 -148 49 C-121.6 49 -95.2 49 -68 49 C-68 48.67 -68 48.34 -68 48 C-94.4 48 -120.8 48 -148 48 Z M-37 48 C-37 48.33 -37 48.66 -37 49 C-16.87 49 3.26 49 24 49 C24 48.67 24 48.34 24 48 C3.87 48 -16.26 48 -37 48 Z M54 48 C54 48.33 54 48.66 54 49 C80.4 49 106.8 49 134 49 C134 48.67 134 48.34 134 48 C107.6 48 81.2 48 54 48 Z M-136 66 C-136 113.52 -136 161.04 -136 210 C-135.67 210 -135.34 210 -135 210 C-135 162.48 -135 114.96 -135 66 C-135.33 66 -135.66 66 -136 66 Z M-134 66 C-134 66.33 -134 66.66 -134 67 C-49.85 67 34.3 67 121 67 C121 66.67 121 66.34 121 66 C36.85 66 -47.3 66 -134 66 Z M122 66 C122 113.52 122 161.04 122 210 C122.33 210 122.66 210 123 210 C123 162.48 123 114.96 123 66 C122.67 66 122.34 66 122 66 Z M-134 68 C-134.226875 91.55375 -134.45375 115.1075 -134.6875 139.375 C-134.76701904 146.82239746 -134.84653809 154.26979492 -134.9284668 161.94287109 C-134.98507679 168.59698399 -134.98507679 168.59698399 -135.03767395 175.25112915 C-135.06127809 178.22366117 -135.09339451 181.19597276 -135.13056946 184.16836548 C-135.17764701 187.95452927 -135.21040693 191.74055762 -135.23259509 195.52694631 C-135.24323329 196.91984029 -135.25899314 198.3127063 -135.28033006 199.70547748 C-135.30833351 201.58038196 -135.31615591 203.45555613 -135.32279968 205.33065796 C-135.33293941 206.38334555 -135.34307913 207.43603313 -135.35352612 208.52062035 C-135.2368625 209.33881563 -135.12019888 210.15701092 -135 211 C-132.24250892 212.97243667 -132.24250892 212.97243667 -129.9375 213.875 C-127.54972049 215.26145262 -127.15091646 216.54471155 -126 219 C-123.1315587 221.10232344 -123.1315587 221.10232344 -120 222 C-119.3162955 223.32467746 -118.65035814 224.65863633 -118 226 C-115.1315587 228.10232344 -115.1315587 228.10232344 -112 229 C-111.3162955 230.32467746 -110.65035814 231.65863633 -110 233 C-107.24250892 234.97243667 -107.24250892 234.97243667 -104.9375 235.875 C-102.54972049 237.26145262 -102.15091646 238.54471155 -101 241 C-98.1315587 243.10232344 -98.1315587 243.10232344 -95 244 C-94.3162955 245.32467746 -93.65035814 246.65863633 -93 248 C-90.1315587 250.10232344 -90.1315587 250.10232344 -87 251 C-86.3162955 252.32467746 -85.65035814 253.65863633 -85 255 C-82.24250892 256.97243667 -82.24250892 256.97243667 -79.9375 257.875 C-77.57968326 259.24405488 -76.99644289 260.50889277 -76 263 C-75.01 263 -74.02 263 -73 263 C-72.7525 262.360625 -72.505 261.72125 -72.25 261.0625 C-71.8375 260.381875 -71.425 259.70125 -71 259 C-70.38125 258.855625 -69.7625 258.71125 -69.125 258.5625 C-65.07795931 257.49122452 -63.21641195 253.32461792 -61 250 C-60.0409375 249.7834375 -60.0409375 249.7834375 -59.0625 249.5625 C-56.24315672 248.7935882 -55.55890352 247.40921453 -54 245 C-52 242 -52 242 -50.0625 241.5625 C-47.24315672 240.7935882 -46.55890352 239.40921453 -45 237 C-43 234 -43 234 -41.0625 233.5625 C-38.24315672 232.7935882 -37.55890352 231.40921453 -36 229 C-34 226 -34 226 -32.0625 225.5625 C-29.24315672 224.7935882 -28.55890352 223.40921453 -27 221 C-25 218 -25 218 -22.9375 217.5 C-22.298125 217.335 -21.65875 217.17 -21 217 C-20.67 216.01 -20.34 215.02 -20 214 C-14.96705374 213.24440102 -9.94674154 212.61413988 -4.875 212.1875 C-4.18535156 212.11080078 -3.49570313 212.03410156 -2.78515625 211.95507812 C0.90202515 211.66250063 2.72380024 211.82101652 5.86328125 213.85546875 C7.27221014 215.26954912 8.67221513 216.69258529 10.0625 218.125 C11.87468087 220.08086432 11.87468087 220.08086432 14.125 221 C16.5162364 222.27532608 16.8715406 223.59261994 18 226 C20.75749108 227.97243667 20.75749108 227.97243667 23.0625 228.875 C25.45027951 230.26145262 25.84908354 231.54471155 27 234 C29.75749108 235.97243667 29.75749108 235.97243667 32.0625 236.875 C34.45027951 238.26145262 34.84908354 239.54471155 36 242 C38.75749108 243.97243667 38.75749108 243.97243667 41.0625 244.875 C43.45027951 246.26145262 43.84908354 247.54471155 45 250 C47.75749108 251.97243667 47.75749108 251.97243667 50.0625 252.875 C52.45027951 254.26145262 52.84908354 255.54471155 54 258 C56.99461723 259.99641149 58.48430284 260.6651717 62 261 C66.00630967 259.95072842 67.81925413 258.48919339 70 255 C70.33 254.34 70.66 253.68 71 253 C71.928125 252.814375 71.928125 252.814375 72.875 252.625 C75.70297566 251.79324245 76.44638224 250.44139934 78 248 C78.33 247.34 78.66 246.68 79 246 C79.928125 245.814375 79.928125 245.814375 80.875 245.625 C83.70297566 244.79324245 84.44638224 243.44139934 86 241 C86.33 240.34 86.66 239.68 87 239 C87.928125 238.814375 87.928125 238.814375 88.875 238.625 C91.7173442 237.78901641 92.41647038 236.44727305 94 234 C94.66 233.01 95.32 232.02 96 231 C96.61875 230.896875 97.2375 230.79375 97.875 230.6875 C100.36526484 230.12474627 100.36526484 230.12474627 102 227 C104 224 104 224 106.0625 223.375 C106.701875 223.25125 107.34125 223.1275 108 223 C109.67632805 221.07532705 110.86068384 219.27863232 112 217 C112.928125 216.814375 112.928125 216.814375 113.875 216.625 C116.7173442 215.78901641 117.41647038 214.44727305 119 212 C119.66 211.01 120.32 210.02 121 209 C121.29676212 206.3379329 121.29676212 206.3379329 121.24050903 203.28633118 C121.24326403 202.09828794 121.24601902 200.91024469 121.2488575 199.68620014 C121.24166128 198.37605536 121.23446507 197.06591059 121.22705078 195.71606445 C121.22643818 194.30396377 121.22670497 192.89186248 121.2277813 191.47976208 C121.22823324 187.6945834 121.21663268 183.9095309 121.20256042 180.12438202 C121.19117949 176.57392474 121.19063468 173.02349831 121.18920898 169.47302246 C121.1787099 159.0861649 121.15078765 148.69933086 121.125 138.3125 C121.063125 103.5078125 121.063125 103.5078125 121 68 C36.85 68 -47.3 68 -134 68 Z M-154 148 C-155.18776537 150.37553074 -155.0882153 151.71321373 -155.02172852 154.35791016 C-155.00163223 155.25869293 -154.98153595 156.15947571 -154.96083069 157.08755493 C-154.93379562 158.06155243 -154.90676056 159.03554993 -154.87890625 160.0390625 C-154.85529526 161.03505463 -154.83168427 162.03104675 -154.80735779 163.05722046 C-154.73062353 166.24662181 -154.64664116 169.43578628 -154.5625 172.625 C-154.50928909 174.78384247 -154.45654864 176.9426966 -154.40429688 179.1015625 C-154.27499524 184.40118907 -154.1397381 189.70063891 -154 195 C-153.67 195 -153.34 195 -153 195 C-153 179.49 -153 163.98 -153 148 C-153.33 148 -153.66 148 -154 148 Z M140 148 C140 163.18 140 178.36 140 194 C140.33 194 140.66 194 141 194 C141.33 179.15 141.66 164.3 142 149 C141.34 148.67 140.68 148.34 140 148 Z M143 151 C141.58273764 152.18910251 141.58273764 152.18910251 141.88647461 155.60180664 C141.88663375 157.20459856 141.89232937 158.8073956 141.90234375 160.41015625 C141.9037587 161.25219101 141.90517365 162.09422577 141.90663147 162.96177673 C141.91224737 165.66205335 141.92480252 168.36224828 141.9375 171.0625 C141.94251295 172.88867068 141.94707621 174.71484266 141.95117188 176.54101562 C141.96222196 181.02737542 141.97949721 185.51367384 142 190 C145.85214279 189.48617425 145.85214279 189.48617425 148.75 187.0625 C150.01340045 185.04080498 150.01340045 185.04080498 151 183 C151.61875 182.87625 152.2375 182.7525 152.875 182.625 C155.70297566 181.79324245 156.44638224 180.44139934 158 178 C158.33 177.34 158.66 176.68 159 176 C159.9590625 175.7834375 159.9590625 175.7834375 160.9375 175.5625 C163.38210855 175.13834965 163.38210855 175.13834965 165 172 C164.69159401 169.84725052 164.69159401 169.84725052 164 168 C163.38125 167.9175 162.7625 167.835 162.125 167.75 C160 167 160 167 159.0625 165.0625 C158.1615763 162.7518736 158.1615763 162.7518736 155.5625 162.0625 C152.2721081 160.69819116 151.79520322 158.99200536 150 156 C148.35008418 155.29289322 146.68437744 154.62056011 145 154 C144.67 153.01 144.34 152.02 144 151 C143.67 151 143.34 151 143 151 Z M-162.6875 156.5 C-164.99923055 158.7659158 -164.99923055 158.7659158 -166 161 C-166.61875 161.103125 -167.2375 161.20625 -167.875 161.3125 C-170.27080252 161.83037974 -170.27080252 161.83037974 -171.5 164.5 C-173 167 -173 167 -175.1875 167.8125 C-175.785625 167.874375 -176.38375 167.93625 -177 168 C-177.33 169.65 -177.66 171.3 -178 173 C-175.31158141 175.25245881 -173.35358125 176.88213958 -170 178 C-169.3162955 179.32467746 -168.65035814 180.65863633 -168 182 C-165.1315587 184.10232344 -165.1315587 184.10232344 -162 185 C-161.3162955 186.32467746 -160.65035814 187.65863633 -160 189 C-159.01 189.66 -158.02 190.32 -157 191 C-156.01 190.505 -156.01 190.505 -155 190 C-155 177.46 -155 164.92 -155 152 C-158.16995314 152 -160.53495724 154.49763464 -162.6875 156.5 Z M-185 190 C-185 246.76 -185 303.52 -185 362 C-181.09805807 358.35954625 -181.09805807 358.35954625 -179 355 C-178.0409375 354.7834375 -178.0409375 354.7834375 -177.0625 354.5625 C-174.24315672 353.7935882 -173.55890352 352.40921453 -172 350 C-170 347 -170 347 -168.0625 346.5625 C-165.24315672 345.7935882 -164.55890352 344.40921453 -163 342 C-161 339 -161 339 -159.0625 338.5625 C-156.24315672 337.7935882 -155.55890352 336.40921453 -154 334 C-152 331 -152 331 -150.0625 330.5625 C-147.24315672 329.7935882 -146.55890352 328.40921453 -145 326 C-143 323 -143 323 -141.0625 322.5625 C-138.24315672 321.7935882 -137.55890352 320.40921453 -136 318 C-134 315 -134 315 -132.0625 314.5625 C-129.24315672 313.7935882 -128.55890352 312.40921453 -127 310 C-125 307 -125 307 -123.0625 306.5625 C-120.24315672 305.7935882 -119.55890352 304.40921453 -118 302 C-116 299 -116 299 -114.0625 298.5625 C-111.24315672 297.7935882 -110.55890352 296.40921453 -109 294 C-107 291 -107 291 -105.0625 290.5625 C-102.24315672 289.7935882 -101.55890352 288.40921453 -100 286 C-98 283 -98 283 -96.0625 282.5625 C-93.22231993 281.78790544 -92.5421663 280.45344639 -91 278 C-90.30419733 276.68163705 -89.62775567 275.35208914 -89 274 C-91.68841859 271.74754119 -93.64641875 270.11786042 -97 269 C-97.6837045 267.67532254 -98.34964186 266.34136367 -99 265 C-101.75749108 263.02756333 -101.75749108 263.02756333 -104.0625 262.125 C-106 261 -106 261 -106.9375 259 C-107.85191283 256.75111035 -107.85191283 256.75111035 -110.4375 256.0625 C-113.72511151 254.69934401 -114.31953908 253.05538349 -116 250 C-118.8684413 247.89767656 -118.8684413 247.89767656 -122 247 C-122.6837045 245.67532254 -123.34964186 244.34136367 -124 243 C-126.8684413 240.89767656 -126.8684413 240.89767656 -130 240 C-130.6837045 238.67532254 -131.34964186 237.34136367 -132 236 C-134.75749108 234.02756333 -134.75749108 234.02756333 -137.0625 233.125 C-139.45027951 231.73854738 -139.84908354 230.45528845 -141 228 C-143.8684413 225.89767656 -143.8684413 225.89767656 -147 225 C-147.6837045 223.67532254 -148.34964186 222.34136367 -149 221 C-151.8684413 218.89767656 -151.8684413 218.89767656 -155 218 C-155.6837045 216.67532254 -156.34964186 215.34136367 -157 214 C-159.75749108 212.02756333 -159.75749108 212.02756333 -162.0625 211.125 C-164 210 -164 210 -164.9375 208 C-165.85191283 205.75111035 -165.85191283 205.75111035 -168.4375 205.0625 C-171.72511151 203.69934401 -172.31953908 202.05538349 -174 199 C-176.8684413 196.89767656 -176.8684413 196.89767656 -180 196 C-180.6837045 194.67532254 -181.34964186 193.34136367 -182 192 C-182.99 191.34 -183.98 190.68 -185 190 Z M171 190 C169.54309134 192.91381732 169.89613481 195.43900798 169.91770935 198.69436646 C169.92093848 199.39027921 169.92416761 200.08619196 169.92749459 200.80319297 C169.93960498 203.14635655 169.95897039 205.48940495 169.97827148 207.83251953 C169.98841054 209.50766751 169.99810461 211.18281824 170.00738525 212.85797119 C170.03390367 217.41559631 170.06667549 221.97315789 170.10053515 226.53073359 C170.13484121 231.28998757 170.16344464 236.04927566 170.19264221 240.80856323 C170.2488315 249.82543167 170.31018026 258.8422574 170.37336355 267.85907924 C170.44503238 278.12250865 170.51097853 288.38597229 170.57643402 298.64944291 C170.71123617 319.76633975 170.85325736 340.88318298 171 362 C171.33 362 171.66 362 172 362 C172 305.24 172 248.48 172 190 C171.67 190 171.34 190 171 190 Z M162.3125 198.5 C160.00076945 200.7659158 160.00076945 200.7659158 159 203 C158.38125 203.12375 157.7625 203.2475 157.125 203.375 C154.2826558 204.21098359 153.58352962 205.55272695 152 208 C151.34 208.99 150.68 209.98 150 211 C149.38125 211.103125 148.7625 211.20625 148.125 211.3125 C145.63473516 211.87525373 145.63473516 211.87525373 144 215 C141.72058766 218.41911851 141.59525083 218.10118729 138 219 C137.34 219.99 136.68 220.98 136 222 C134 225 134 225 131.9375 225.625 C131.298125 225.74875 130.65875 225.8725 130 226 C128.32367195 227.92467295 127.13931616 229.72136768 126 232 C125.38125 232.12375 124.7625 232.2475 124.125 232.375 C121.29702434 233.20675755 120.55361776 234.55860066 119 237 C118.505 237.99 118.505 237.99 118 239 C117.38125 239.12375 116.7625 239.2475 116.125 239.375 C113.29702434 240.20675755 112.55361776 241.55860066 111 244 C110.505 244.99 110.505 244.99 110 246 C109.38125 246.12375 108.7625 246.2475 108.125 246.375 C105.29702434 247.20675755 104.55361776 248.55860066 103 251 C102.67 251.66 102.34 252.32 102 253 C101.38125 253.12375 100.7625 253.2475 100.125 253.375 C97.2826558 254.21098359 96.58352962 255.55272695 95 258 C94.34 258.99 93.68 259.98 93 261 C92.38125 261.103125 91.7625 261.20625 91.125 261.3125 C88.63473516 261.87525373 88.63473516 261.87525373 87 265 C85 268 85 268 82.9375 268.625 C82.298125 268.74875 81.65875 268.8725 81 269 C78.90339319 271.32956312 77.99958296 273.00125113 77 276 C79.42861342 280.25007348 81.47328762 282.92806141 86.0625 284.875 C88.45027951 286.26145262 88.84908354 287.54471155 90 290 C92.75749108 291.97243667 92.75749108 291.97243667 95.0625 292.875 C97.45027951 294.26145262 97.84908354 295.54471155 99 298 C101.75749108 299.97243667 101.75749108 299.97243667 104.0625 300.875 C106.45027951 302.26145262 106.84908354 303.54471155 108 306 C110.75749108 307.97243667 110.75749108 307.97243667 113.0625 308.875 C115.45027951 310.26145262 115.84908354 311.54471155 117 314 C119.75749108 315.97243667 119.75749108 315.97243667 122.0625 316.875 C124.45027951 318.26145262 124.84908354 319.54471155 126 322 C128.75749108 323.97243667 128.75749108 323.97243667 131.0625 324.875 C133.45027951 326.26145262 133.84908354 327.54471155 135 330 C137.75749108 331.97243667 137.75749108 331.97243667 140.0625 332.875 C142.45027951 334.26145262 142.84908354 335.54471155 144 338 C146.75749108 339.97243667 146.75749108 339.97243667 149.0625 340.875 C151.45027951 342.26145262 151.84908354 343.54471155 153 346 C155.75749108 347.97243667 155.75749108 347.97243667 158.0625 348.875 C160.45027951 350.26145262 160.84908354 351.54471155 162 354 C165.18884294 356.27468064 165.18884294 356.27468064 170 358 C170 303.88 170 249.76 170 194 C166.83004686 194 164.46504276 196.49763464 162.3125 198.5 Z M-9 229 C-5 230 -5 230 -5 230 Z M-10 232 C-10.86625 232.268125 -11.7325 232.53625 -12.625 232.8125 C-16.23292146 234.61646073 -18.21852192 237.43704384 -20 241 C-20.598125 241.103125 -21.19625 241.20625 -21.8125 241.3125 C-24.99106644 242.31147802 -26.11596507 244.33636441 -28 247 C-28.33 247.66 -28.66 248.32 -29 249 C-29.598125 249.103125 -30.19625 249.20625 -30.8125 249.3125 C-33.99106644 250.31147802 -35.11596507 252.33636441 -37 255 C-37.33 255.66 -37.66 256.32 -38 257 C-38.598125 257.103125 -39.19625 257.20625 -39.8125 257.3125 C-42.99106644 258.31147802 -44.11596507 260.33636441 -46 263 C-46.495 263.99 -46.495 263.99 -47 265 C-47.8971875 265.1546875 -47.8971875 265.1546875 -48.8125 265.3125 C-51.99106644 266.31147802 -53.11596507 268.33636441 -55 271 C-55.495 271.99 -55.495 271.99 -56 273 C-56.8971875 273.1546875 -56.8971875 273.1546875 -57.8125 273.3125 C-60.99106644 274.31147802 -62.11596507 276.33636441 -64 279 C-64.495 279.99 -64.495 279.99 -65 281 C-65.8971875 281.1546875 -65.8971875 281.1546875 -66.8125 281.3125 C-69.99106644 282.31147802 -71.11596507 284.33636441 -73 287 C-73.495 287.99 -73.495 287.99 -74 289 C-74.8971875 289.1546875 -74.8971875 289.1546875 -75.8125 289.3125 C-78.99106644 290.31147802 -80.11596507 292.33636441 -82 295 C-82.33 295.66 -82.66 296.32 -83 297 C-83.598125 297.103125 -84.19625 297.20625 -84.8125 297.3125 C-87.99106644 298.31147802 -89.11596507 300.33636441 -91 303 C-91.33 303.66 -91.66 304.32 -92 305 C-92.598125 305.103125 -93.19625 305.20625 -93.8125 305.3125 C-96.99106644 306.31147802 -98.11596507 308.33636441 -100 311 C-100.33 311.66 -100.66 312.32 -101 313 C-101.598125 313.103125 -102.19625 313.20625 -102.8125 313.3125 C-105.99106644 314.31147802 -107.11596507 316.33636441 -109 319 C-109.33 319.66 -109.66 320.32 -110 321 C-110.598125 321.103125 -111.19625 321.20625 -111.8125 321.3125 C-114.99106644 322.31147802 -116.11596507 324.33636441 -118 327 C-118.33 327.66 -118.66 328.32 -119 329 C-119.61875 329.12375 -120.2375 329.2475 -120.875 329.375 C-123.7173442 330.21098359 -124.41647038 331.55272695 -126 334 C-128 337 -128 337 -129.875 337.375 C-133.03393411 338.30409827 -134.14347888 340.37526325 -136 343 C-136.33 343.66 -136.66 344.32 -137 345 C-137.61875 345.12375 -138.2375 345.2475 -138.875 345.375 C-141.7173442 346.21098359 -142.41647038 347.55272695 -144 350 C-146 353 -146 353 -147.9375 353.4375 C-150.75684328 354.2064118 -151.44109648 355.59078547 -153 358 C-155 361 -155 361 -156.9375 361.4375 C-159.75684328 362.2064118 -160.44109648 363.59078547 -162 366 C-164.27941234 369.41911851 -164.40474917 369.10118729 -168 370 C-168.66 370.99 -169.32 371.98 -170 373 C-168.97469096 374.24740282 -168.97469096 374.24740282 -166.79189199 374.1241985 C-165.80499885 374.12381878 -164.81810572 374.12343906 -163.80130672 374.12304783 C-162.66721211 374.12503888 -161.5331175 374.12702993 -160.36465639 374.12908131 C-159.10301103 374.12616847 -157.84136568 374.12325563 -156.54148865 374.12025452 C-155.20006527 374.1206901 -153.85864197 374.12156477 -152.51721913 374.12284368 C-148.81395622 374.12509116 -145.11072197 374.12106393 -141.40746272 374.11606562 C-137.42039463 374.1117649 -133.43332829 374.11320727 -129.44625854 374.1139679 C-122.53270011 374.11449337 -115.61915108 374.11134411 -108.70559502 374.10573006 C-98.70963627 374.09761825 -88.71368208 374.09500017 -78.7177204 374.09374207 C-62.50167104 374.09155104 -46.28562671 374.08488959 -30.06958008 374.07543945 C-14.31306992 374.06626664 1.44343888 374.05918517 17.19995117 374.05493164 C18.65571743 374.05453756 18.65571743 374.05453756 20.14089311 374.05413551 C25.00944562 374.05283051 29.87799815 374.0515668 34.74655068 374.05032361 C75.16437061 374.03994942 115.58218502 374.02232974 156 374 C156 373.01 156 372.02 156 371 C153.1315587 368.89767656 153.1315587 368.89767656 150 368 C149.33333333 366.66666667 148.66666667 365.33333333 148 364 C145.63548321 361.94058215 144.0037515 361.0012505 141 360 C140.33333333 358.66666667 139.66666667 357.33333333 139 356 C136.63548321 353.94058215 135.0037515 353.0012505 132 352 C131.33333333 350.66666667 130.66666667 349.33333333 130 348 C127.63548321 345.94058215 126.0037515 345.0012505 123 344 C122.33333333 342.66666667 121.66666667 341.33333333 121 340 C118.63548321 337.94058215 117.0037515 337.0012505 114 336 C113.33333333 334.66666667 112.66666667 333.33333333 112 332 C109.63548321 329.94058215 108.0037515 329.0012505 105 328 C104.3162955 326.67532254 103.65035814 325.34136367 103 324 C100.24250892 322.02756333 100.24250892 322.02756333 97.9375 321.125 C95.54972049 319.73854738 95.15091646 318.45528845 94 316 C91.24250892 314.02756333 91.24250892 314.02756333 88.9375 313.125 C86.54972049 311.73854738 86.15091646 310.45528845 85 308 C82.24250892 306.02756333 82.24250892 306.02756333 79.9375 305.125 C77.54972049 303.73854738 77.15091646 302.45528845 76 300 C73.24250892 298.02756333 73.24250892 298.02756333 70.9375 297.125 C68.54972049 295.73854738 68.15091646 294.45528845 67 292 C64.24250892 290.02756333 64.24250892 290.02756333 61.9375 289.125 C59.54972049 287.73854738 59.15091646 286.45528845 58 284 C55.24250892 282.02756333 55.24250892 282.02756333 52.9375 281.125 C50.54972049 279.73854738 50.15091646 278.45528845 49 276 C46.24250892 274.02756333 46.24250892 274.02756333 43.9375 273.125 C41.54972049 271.73854738 41.15091646 270.45528845 40 268 C37.24250892 266.02756333 37.24250892 266.02756333 34.9375 265.125 C32.54972049 263.73854738 32.15091646 262.45528845 31 260 C28.24250892 258.02756333 28.24250892 258.02756333 25.9375 257.125 C23.54972049 255.73854738 23.15091646 254.45528845 22 252 C19.24250892 250.02756333 19.24250892 250.02756333 16.9375 249.125 C14.54972049 247.73854738 14.15091646 246.45528845 13 244 C10.24250892 242.02756333 10.24250892 242.02756333 7.9375 241.125 C5.54972049 239.73854738 5.15091646 238.45528845 4 236 C1.1315587 233.89767656 1.1315587 233.89767656 -2 233 C-2.33 232.01 -2.66 231.02 -3 230 C-5.341464 230 -7.82678943 231.2477348 -10 232 Z " fill="#1A1A1A" transform="translate(257,54)"/>
<path d="M0 0 C110.55 0 221.1 0 335 0 C335 0.33 335 0.66 335 1 C224.45 1 113.9 1 0 1 C0 0.67 0 0.34 0 0 Z " fill="#1B1B1B" transform="translate(83,447)"/>
<path d="M0 0 C106.59 0 213.18 0 323 0 C323.33 0.66 323.66 1.32 324 2 C216.75 2 109.5 2 -1 2 C-0.67 1.34 -0.34 0.68 0 0 Z " fill="#1B1B1B" transform="translate(89,425)"/>
<path d="M0 0 C0.33 0 0.66 0 1 0 C1 64.02 1 128.04 1 194 C0.67 194 0.34 194 0 194 C0 129.98 0 65.96 0 0 Z " fill="#1B1B1B" transform="translate(447,223)"/>
<path d="M0 0 C0.33 0 0.66 0 1 0 C1 64.02 1 128.04 1 194 C0.67 194 0.34 194 0 194 C0 129.98 0 65.96 0 0 Z " fill="#1B1B1B" transform="translate(52,223)"/>
<path d="M0 0 C2 2 2 2 2.24609566 4.82296181 C2.24425207 6.03788496 2.24240849 7.25280811 2.24050903 8.50454712 C2.24221788 9.18004211 2.24392673 9.8555371 2.24568737 10.55150163 C2.24899397 12.82561913 2.2379596 15.09944463 2.22705078 17.37353516 C2.22648692 18.99942518 2.22680274 20.62531572 2.22793579 22.25120544 C2.22851128 26.67454396 2.21672532 31.09777472 2.20278788 35.52108812 C2.19031313 40.14022308 2.1891126 44.75936032 2.18673706 49.37850952 C2.18051269 58.12975234 2.16408897 66.88094539 2.14403808 75.63216627 C2.1217088 85.59332207 2.11069314 95.55448021 2.10064721 105.5156548 C2.07972355 126.01046435 2.04452903 146.50522904 2 167 C1.34 167.33 0.68 167.66 0 168 C0 112.56 0 57.12 0 0 Z " fill="#1B1B1B" transform="translate(73,246)"/>
<path d="M0 0 C0.33 0 0.66 0 1 0 C1 23.43 1 46.86 1 71 C0.67 71 0.34 71 0 71 C0 47.57 0 24.14 0 0 Z " fill="#1B1B1B" transform="translate(398,108)"/>
<path d="M0 0 C0.33 0 0.66 0 1 0 C1 23.43 1 46.86 1 71 C0.67 71 0.34 71 0 71 C0 47.57 0 24.14 0 0 Z " fill="#1B1B1B" transform="translate(102,108)"/>
<path d="M0 0 C4.29 0 8.58 0 13 0 C13 0.33 13 0.66 13 1 C8.71 1 4.42 1 0 1 C0 0.67 0 0.34 0 0 Z " fill="#1B1B1B" transform="translate(244,264)"/>
<path d="M0 0 C0 0.99 0 1.98 0 3 C-0.99 3 -1.98 3 -3 3 C-2.01 2.01 -1.02 1.02 0 0 Z " fill="#1B1B1B" transform="translate(437,435)"/>
<path d="M0 0 C0.33 0 0.66 0 1 0 C1 1.65 1 3.3 1 5 C0.67 5 0.34 5 0 5 C0 3.35 0 1.7 0 0 Z " fill="#1A1A1A" transform="translate(446,417)"/>
<path d="M0 0 C1.65 0 3.3 0 5 0 C5 0.33 5 0.66 5 1 C3.35 1 1.7 1 0 1 C0 0.67 0 0.34 0 0 Z " fill="#1B1B1B" transform="translate(248,52)"/>
<path d="M0 0 C4 1 4 1 4 1 Z " fill="#1B1B1B" transform="translate(418,446)"/>
<path d="M0 0 C4 1 4 1 4 1 Z " fill="#1B1B1B" transform="translate(79,446)"/>
<path d="M0 0 C1 4 1 4 1 4 Z " fill="#1B1B1B" transform="translate(53,418)"/>
<path d="M0 0 C0.66 0.66 1.32 1.32 2 2 C1.01 1.67 0.02 1.34 -1 1 C-0.67 0.67 -0.34 0.34 0 0 Z " fill="#1B1B1B" transform="translate(250,75)"/>
<path d="M0 0 C3 1 3 1 3 1 Z " fill="#1B1B1B" transform="translate(76,445)"/>
<path d="" fill="#1B1B1B" transform="translate(0,0)"/>
<path d="M0 0 C3 1 3 1 3 1 Z " fill="#1B1B1B" transform="translate(241,265)"/>
<path d="M0 0 C2 1 2 1 2 1 Z " fill="#1B1B1B" transform="translate(74,444)"/>
<path d="" fill="#1B1B1B" transform="translate(0,0)"/>
<path d="" fill="#1B1B1B" transform="translate(0,0)"/>
<path d="" fill="#1B1B1B" transform="translate(0,0)"/>
<path d="" fill="#1B1B1B" transform="translate(0,0)"/>
<path d="" fill="#1B1B1B" transform="translate(0,0)"/>
<path d="" fill="#1B1B1B" transform="translate(0,0)"/>
<path d="" fill="#1B1B1B" transform="translate(0,0)"/>
<path d="" fill="#1B1B1B" transform="translate(0,0)"/>
<path d="" fill="#1B1B1B" transform="translate(0,0)"/>
<path d="" fill="#1B1B1B" transform="translate(0,0)"/>
<path d="" fill="#1B1B1B" transform="translate(0,0)"/>
<path d="" fill="#1B1B1B" transform="translate(0,0)"/>
<path d="M0 0 C2 1 2 1 2 1 Z " fill="#1B1B1B" transform="translate(253,53)"/>
<path d="" fill="#1B1B1B" transform="translate(0,0)"/>
<path d="" fill="#1B1B1B" transform="translate(0,0)"/>
<path d="" fill="#1B1B1B" transform="translate(0,0)"/>
<path d="" fill="#1B1B1B" transform="translate(0,0)"/>
<path d="" fill="#1B1B1B" transform="translate(0,0)"/>
<path d="" fill="#1B1B1B" transform="translate(0,0)"/>
<path d="" fill="#1B1B1B" transform="translate(0,0)"/>
<path d="" fill="#1B1B1B" transform="translate(0,0)"/>
<path d="" fill="#1B1B1B" transform="translate(0,0)"/>
<path d="" fill="#1B1B1B" transform="translate(0,0)"/>
<path d="" fill="#1B1B1B" transform="translate(0,0)"/>
<path d="" fill="#1B1B1B" transform="translate(0,0)"/>
<path d="" fill="#1B1B1B" transform="translate(0,0)"/>
<path d="" fill="#1B1B1B" transform="translate(0,0)"/>
<path d="" fill="#1B1B1B" transform="translate(0,0)"/>
<path d="" fill="#1B1B1B" transform="translate(0,0)"/>
<path d="" fill="#1B1B1B" transform="translate(0,0)"/>
<path d="" fill="#1B1B1B" transform="translate(0,0)"/>
<path d="" fill="#1B1B1B" transform="translate(0,0)"/>
<path d="" fill="#1B1B1B" transform="translate(0,0)"/>
<path d="" fill="#1B1B1B" transform="translate(0,0)"/>
<path d="" fill="#1B1B1B" transform="translate(0,0)"/>
<path d="" fill="#1B1B1B" transform="translate(0,0)"/>
<path d="" fill="#1B1B1B" transform="translate(0,0)"/>
<path d="" fill="#1B1B1B" transform="translate(0,0)"/>
<path d="" fill="#1B1B1B" transform="translate(0,0)"/>
<path d="" fill="#1B1B1B" transform="translate(0,0)"/>
<path d="" fill="#1B1B1B" transform="translate(0,0)"/>
<path d="" fill="#1B1B1B" transform="translate(0,0)"/>
<path d="" fill="#1B1B1B" transform="translate(0,0)"/>
<path d="" fill="#1B1B1B" transform="translate(0,0)"/>
<path d="" fill="#1B1B1B" transform="translate(0,0)"/>
<path d="" fill="#1B1B1B" transform="translate(0,0)"/>
<path d="" fill="#1B1B1B" transform="translate(0,0)"/>
<path d="" fill="#1B1B1B" transform="translate(0,0)"/>
<path d="" fill="#1B1B1B" transform="translate(0,0)"/>
<path d="" fill="#1B1B1B" transform="translate(0,0)"/>
<path d="" fill="#1B1B1B" transform="translate(0,0)"/>
<path d="" fill="#1B1B1B" transform="translate(0,0)"/>
<path d="" fill="#1B1B1B" transform="translate(0,0)"/>
<path d="" fill="#1B1B1B" transform="translate(0,0)"/>
<path d="" fill="#1B1B1B" transform="translate(0,0)"/>
<path d="" fill="#1B1B1B" transform="translate(0,0)"/>
<path d="" fill="#1B1B1B" transform="translate(0,0)"/>
<path d="" fill="#1B1B1B" transform="translate(0,0)"/>
<path d="" fill="#1B1B1B" transform="translate(0,0)"/>
<path d="" fill="#1B1B1B" transform="translate(0,0)"/>
<path d="" fill="#1B1B1B" transform="translate(0,0)"/>
<path d="" fill="#1B1B1B" transform="translate(0,0)"/>
<path d="" fill="#1B1B1B" transform="translate(0,0)"/>
<path d="" fill="#1B1B1B" transform="translate(0,0)"/>
<path d="" fill="#1B1B1B" transform="translate(0,0)"/>
<path d="" fill="#1B1B1B" transform="translate(0,0)"/>
<path d="" fill="#1B1B1B" transform="translate(0,0)"/>
<path d="" fill="#1B1B1B" transform="translate(0,0)"/>
<path d="" fill="#1B1B1B" transform="translate(0,0)"/>
<path d="" fill="#1B1B1B" transform="translate(0,0)"/>
<path d="" fill="#1B1B1B" transform="translate(0,0)"/>
<path d="" fill="#1B1B1B" transform="translate(0,0)"/>
<path d="" fill="#1B1B1B" transform="translate(0,0)"/>
<path d="" fill="#1B1B1B" transform="translate(0,0)"/>
<path d="" fill="#1B1B1B" transform="translate(0,0)"/>
<path d="" fill="#1B1B1B" transform="translate(0,0)"/>
<path d="" fill="#1B1B1B" transform="translate(0,0)"/>
<path d="" fill="#1B1B1B" transform="translate(0,0)"/>
<path d="" fill="#1B1B1B" transform="translate(0,0)"/>
<path d="" fill="#1B1B1B" transform="translate(0,0)"/>
<path d="" fill="#1B1B1B" transform="translate(0,0)"/>
<path d="" fill="#1B1B1B" transform="translate(0,0)"/>
<path d="" fill="#1B1B1B" transform="translate(0,0)"/>
<path d="" fill="#1B1B1B" transform="translate(0,0)"/>
<path d="" fill="#1B1B1B" transform="translate(0,0)"/>
<path d="" fill="#1B1B1B" transform="translate(0,0)"/>
<path d="" fill="#1B1B1B" transform="translate(0,0)"/>
<path d="" fill="#1B1B1B" transform="translate(0,0)"/>
<path d="" fill="#1B1B1B" transform="translate(0,0)"/>
<path d="" fill="#1B1B1B" transform="translate(0,0)"/>
<path d="" fill="#1B1B1B" transform="translate(0,0)"/>
<path d="" fill="#1B1B1B" transform="translate(0,0)"/>
<path d="" fill="#1B1B1B" transform="translate(0,0)"/>
<path d="" fill="#1B1B1B" transform="translate(0,0)"/>
<path d="" fill="#1B1B1B" transform="translate(0,0)"/>
<path d="" fill="#1B1B1B" transform="translate(0,0)"/>
<path d="" fill="#1B1B1B" transform="translate(0,0)"/>
<path d="" fill="#1B1B1B" transform="translate(0,0)"/>
<path d="" fill="#1B1B1B" transform="translate(0,0)"/>
<path d="" fill="#1B1B1B" transform="translate(0,0)"/>
<path d="" fill="#1B1B1B" transform="translate(0,0)"/>
<path d="" fill="#1B1B1B" transform="translate(0,0)"/>
<path d="" fill="#1B1B1B" transform="translate(0,0)"/>
<path d="" fill="#1B1B1B" transform="translate(0,0)"/>
<path d="" fill="#1B1B1B" transform="translate(0,0)"/>
<path d="" fill="#1B1B1B" transform="translate(0,0)"/>
<path d="" fill="#1B1B1B" transform="translate(0,0)"/>
<path d="" fill="#1B1B1B" transform="translate(0,0)"/>
<path d="" fill="#1B1B1B" transform="translate(0,0)"/>
<path d="" fill="#1B1B1B" transform="translate(0,0)"/>
<path d="" fill="#1B1B1B" transform="translate(0,0)"/>
<path d="" fill="#1B1B1B" transform="translate(0,0)"/>
<path d="" fill="#1B1B1B" transform="translate(0,0)"/>
<path d="" fill="#1B1B1B" transform="translate(0,0)"/>
<path d="" fill="#1B1B1B" transform="translate(0,0)"/>
<path d="" fill="#1B1B1B" transform="translate(0,0)"/>
<path d="" fill="#1B1B1B" transform="translate(0,0)"/>
<path d="" fill="#1B1B1B" transform="translate(0,0)"/>
<path d="" fill="#1B1B1B" transform="translate(0,0)"/>
<path d="" fill="#1B1B1B" transform="translate(0,0)"/>
<path d="" fill="#1B1B1B" transform="translate(0,0)"/>
<path d="" fill="#1B1B1B" transform="translate(0,0)"/>
<path d="" fill="#1B1B1B" transform="translate(0,0)"/>
<path d="" fill="#1B1B1B" transform="translate(0,0)"/>
<path d="" fill="#1B1B1B" transform="translate(0,0)"/>
<path d="" fill="#1B1B1B" transform="translate(0,0)"/>
<path d="" fill="#1B1B1B" transform="translate(0,0)"/>
<path d="" fill="#1B1B1B" transform="translate(0,0)"/>
<path d="" fill="#1B1B1B" transform="translate(0,0)"/>
<path d="" fill="#1B1B1B" transform="translate(0,0)"/>
<path d="" fill="#1B1B1B" transform="translate(0,0)"/>
<path d="" fill="#1B1B1B" transform="translate(0,0)"/>
<path d="" fill="#1B1B1B" transform="translate(0,0)"/>
<path d="" fill="#1B1B1B" transform="translate(0,0)"/>
<path d="" fill="#1B1B1B" transform="translate(0,0)"/>
<path d="" fill="#1B1B1B" transform="translate(0,0)"/>
<path d="" fill="#1B1B1B" transform="translate(0,0)"/>
<path d="" fill="#1B1B1B" transform="translate(0,0)"/>
<path d="" fill="#1B1B1B" transform="translate(0,0)"/>
<path d="" fill="#1B1B1B" transform="translate(0,0)"/>
<path d="" fill="#1B1B1B" transform="translate(0,0)"/>
<path d="" fill="#1B1B1B" transform="translate(0,0)"/>
<path d="" fill="#1B1B1B" transform="translate(0,0)"/>
<path d="" fill="#1B1B1B" transform="translate(0,0)"/>
<path d="" fill="#1B1B1B" transform="translate(0,0)"/>
<path d="" fill="#1B1B1B" transform="translate(0,0)"/>
<path d="" fill="#1B1B1B" transform="translate(0,0)"/>
<path d="" fill="#1B1B1B" transform="translate(0,0)"/>
<path d="" fill="#1B1B1B" transform="translate(0,0)"/>
<path d="" fill="#1B1B1B" transform="translate(0,0)"/>
<path d="" fill="#1B1B1B" transform="translate(0,0)"/>
<path d="" fill="#1B1B1B" transform="translate(0,0)"/>
<path d="" fill="#1B1B1B" transform="translate(0,0)"/>
<path d="" fill="#1B1B1B" transform="translate(0,0)"/>
<path d="" fill="#1B1B1B" transform="translate(0,0)"/>
<path d="" fill="#1B1B1B" transform="translate(0,0)"/>
<path d="" fill="#1B1B1B" transform="translate(0,0)"/>
<path d="" fill="#1B1B1B" transform="translate(0,0)"/>
<path d="" fill="#1B1B1B" transform="translate(0,0)"/>
<path d="" fill="#1B1B1B" transform="translate(0,0)"/>
<path d="" fill="#1B1B1B" transform="translate(0,0)"/>
<path d="" fill="#1B1B1B" transform="translate(0,0)"/>
<path d="" fill="#1B1B1B" transform="translate(0,0)"/>
<path d="" fill="#1B1B1B" transform="translate(0,0)"/>
<path d="" fill="#1B1B1B" transform="translate(0,0)"/>
<path d="" fill="#1B1B1B" transform="translate(0,0)"/>
<path d="" fill="#1B1B1B" transform="translate(0,0)"/>
<path d="" fill="#1B1B1B" transform="translate(0,0)"/>
<path d="" fill="#1B1B1B" transform="translate(0,0)"/>
<path d="" fill="#1B1B1B" transform="translate(0,0)"/>
<path d="" fill="#1B1B1B" transform="translate(0,0)"/>
<path d="" fill="#1B1B1B" transform="translate(0,0)"/>
<path d="" fill="#1B1B1B" transform="translate(0,0)"/>
<path d="" fill="#1B1B1B" transform="translate(0,0)"/>
<path d="" fill="#1B1B1B" transform="translate(0,0)"/>
<path d="" fill="#1B1B1B" transform="translate(0,0)"/>
<path d="" fill="#1B1B1B" transform="translate(0,0)"/>
<path d="" fill="#1B1B1B" transform="translate(0,0)"/>
<path d="" fill="#1B1B1B" transform="translate(0,0)"/>
<path d="" fill="#1B1B1B" transform="translate(0,0)"/>
<path d="" fill="#1B1B1B" transform="translate(0,0)"/>
<path d="" fill="#1B1B1B" transform="translate(0,0)"/>
<path d="" fill="#1B1B1B" transform="translate(0,0)"/>
<path d="" fill="#1B1B1B" transform="translate(0,0)"/>
<path d="" fill="#1B1B1B" transform="translate(0,0)"/>
<path d="" fill="#1B1B1B" transform="translate(0,0)"/>
<path d="" fill="#1B1B1B" transform="translate(0,0)"/>
<path d="" fill="#1B1B1B" transform="translate(0,0)"/>
<path d="" fill="#1B1B1B" transform="translate(0,0)"/>
<path d="" fill="#1B1B1B" transform="translate(0,0)"/>
<path d="" fill="#1B1B1B" transform="translate(0,0)"/>
<path d="" fill="#1B1B1B" transform="translate(0,0)"/>
<path d="" fill="#1B1B1B" transform="translate(0,0)"/>
<path d="" fill="#1B1B1B" transform="translate(0,0)"/>
<path d="" fill="#1B1B1B" transform="translate(0,0)"/>
<path d="" fill="#1B1B1B" transform="translate(0,0)"/>
<path d="" fill="#1B1B1B" transform="translate(0,0)"/>
<path d="" fill="#1B1B1B" transform="translate(0,0)"/>
<path d="" fill="#1B1B1B" transform="translate(0,0)"/>
<path d="" fill="#1B1B1B" transform="translate(0,0)"/>
<path d="" fill="#1B1B1B" transform="translate(0,0)"/>
<path d="" fill="#1B1B1B" transform="translate(0,0)"/>
<path d="" fill="#1B1B1B" transform="translate(0,0)"/>
<path d="" fill="#1B1B1B" transform="translate(0,0)"/>
<path d="" fill="#1B1B1B" transform="translate(0,0)"/>
<path d="" fill="#1B1B1B" transform="translate(0,0)"/>
<path d="" fill="#1B1B1B" transform="translate(0,0)"/>
<path d="" fill="#1B1B1B" transform="translate(0,0)"/>
<path d="" fill="#1B1B1B" transform="translate(0,0)"/>
<path d="" fill="#1B1B1B" transform="translate(0,0)"/>
<path d="" fill="#1B1B1B" transform="translate(0,0)"/>
<path d="" fill="#1B1B1B" transform="translate(0,0)"/>
<path d="" fill="#1B1B1B" transform="translate(0,0)"/>
<path d="" fill="#1B1B1B" transform="translate(0,0)"/>
<path d="" fill="#1B1B1B" transform="translate(0,0)"/>
<path d="" fill="#1B1B1B" transform="translate(0,0)"/>
<path d="" fill="#1B1B1B" transform="translate(0,0)"/>
<path d="" fill="#1B1B1B" transform="translate(0,0)"/>
<path d="" fill="#1B1B1B" transform="translate(0,0)"/>
<path d="" fill="#1B1B1B" transform="translate(0,0)"/>
<path d="" fill="#1B1B1B" transform="translate(0,0)"/>
<path d="" fill="#1B1B1B" transform="translate(0,0)"/>
<path d="" fill="#1B1B1B" transform="translate(0,0)"/>
<path d="" fill="#1B1B1B" transform="translate(0,0)"/>
<path d="" fill="#1B1B1B" transform="translate(0,0)"/>
<path d="" fill="#1B1B1B" transform="translate(0,0)"/>
<path d="" fill="#1B1B1B" transform="translate(0,0)"/>
<path d="" fill="#1B1B1B" transform="translate(0,0)"/>
<path d="" fill="#1B1B1B" transform="translate(0,0)"/>
<path d="" fill="#1B1B1B" transform="translate(0,0)"/>
<path d="" fill="#1B1B1B" transform="translate(0,0)"/>
<path d="" fill="#1B1B1B" transform="translate(0,0)"/>
<path d="" fill="#1B1B1B" transform="translate(0,0)"/>
<path d="" fill="#1B1B1B" transform="translate(0,0)"/>
<path d="" fill="#1B1B1B" transform="translate(0,0)"/>
<path d="" fill="#1B1B1B" transform="translate(0,0)"/>
<path d="" fill="#1B1B1B" transform="translate(0,0)"/>
<path d="" fill="#1B1B1B" transform="translate(0,0)"/>
<path d="" fill="#1B1B1B" transform="translate(0,0)"/>
<path d="" fill="#1B1B1B" transform="translate(0,0)"/>
<path d="" fill="#1B1B1B" transform="translate(0,0)"/>
<path d="" fill="#1B1B1B" transform="translate(0,0)"/>
<path d="" fill="#1B1B1B" transform="translate(0,0)"/>
<path d="" fill="#1B1B1B" transform="translate(0,0)"/>
<path d="" fill="#1B1B1B" transform="translate(0,0)"/>
<path d="" fill="#1B1B1B" transform="translate(0,0)"/>
<path d="" fill="#1B1B1B" transform="translate(0,0)"/>
<path d="" fill="#1B1B1B" transform="translate(0,0)"/>
<path d="" fill="#1B1B1B" transform="translate(0,0)"/>
<path d="" fill="#1B1B1B" transform="translate(0,0)"/>
<path d="" fill="#1B1B1B" transform="translate(0,0)"/>
<path d="" fill="#1B1B1B" transform="translate(0,0)"/>
<path d="" fill="#1B1B1B" transform="translate(0,0)"/>
<path d="" fill="#1B1B1B" transform="translate(0,0)"/>
<path d="" fill="#1B1B1B" transform="translate(0,0)"/>
<path d="" fill="#1B1B1B" transform="translate(0,0)"/>
<path d="" fill="#1B1B1B" transform="translate(0,0)"/>
<path d="" fill="#1B1B1B" transform="translate(0,0)"/>
<path d="" fill="#1B1B1B" transform="translate(0,0)"/>
<path d="" fill="#1B1B1B" transform="translate(0,0)"/>
<path d="" fill="#1B1B1B" transform="translate(0,0)"/>
<path d="" fill="#1B1B1B" transform="translate(0,0)"/>
<path d="" fill="#1B1B1B" transform="translate(0,0)"/>
<path d="" fill="#1B1B1B" transform="translate(0,0)"/>
<path d="" fill="#1B1B1B" transform="translate(0,0)"/>
<path d="" fill="#1B1B1B" transform="translate(0,0)"/>
<path d="" fill="#1B1B1B" transform="translate(0,0)"/>
<path d="" fill="#1B1B1B" transform="translate(0,0)"/>
<path d="" fill="#1B1B1B" transform="translate(0,0)"/>
<path d="" fill="#1B1B1B" transform="translate(0,0)"/>
<path d="" fill="#1B1B1B" transform="translate(0,0)"/>
<path d="" fill="#1B1B1B" transform="translate(0,0)"/>
<path d="" fill="#1B1B1B" transform="translate(0,0)"/>
<path d="" fill="#1B1B1B" transform="translate(0,0)"/>
<path d="" fill="#1B1B1B" transform="translate(0,0)"/>
<path d="" fill="#1B1B1B" transform="translate(0,0)"/>
<path d="" fill="#1B1B1B" transform="translate(0,0)"/>
<path d="" fill="#1B1B1B" transform="translate(0,0)"/>
<path d="" fill="#1B1B1B" transform="translate(0,0)"/>
<path d="" fill="#1B1B1B" transform="translate(0,0)"/>
<path d="" fill="#1B1B1B" transform="translate(0,0)"/>
<path d="" fill="#1B1B1B" transform="translate(0,0)"/>
<path d="" fill="#1B1B1B" transform="translate(0,0)"/>
<path d="" fill="#1B1B1B" transform="translate(0,0)"/>
<path d="" fill="#1B1B1B" transform="translate(0,0)"/>
<path d="" fill="#1B1B1B" transform="translate(0,0)"/>
<path d="" fill="#1B1B1B" transform="translate(0,0)"/>
<path d="" fill="#1B1B1B" transform="translate(0,0)"/>
<path d="" fill="#1B1B1B" transform="translate(0,0)"/>
<path d="" fill="#1B1B1B" transform="translate(0,0)"/>
<path d="" fill="#1B1B1B" transform="translate(0,0)"/>
<path d="" fill="#1B1B1B" transform="translate(0,0)"/>
<path d="" fill="#1B1B1B" transform="translate(0,0)"/>
<path d="" fill="#1B1B1B" transform="translate(0,0)"/>
<path d="" fill="#1B1B1B" transform="translate(0,0)"/>
<path d="" fill="#1B1B1B" transform="translate(0,0)"/>
<path d="" fill="#1B1B1B" transform="translate(0,0)"/>
<path d="" fill="#1B1B1B" transform="translate(0,0)"/>
<path d="" fill="#1B1B1B" transform="translate(0,0)"/>
<path d="" fill="#1B1B1B" transform="translate(0,0)"/>
<path d="" fill="#1B1B1B" transform="translate(0,0)"/>
<path d="" fill="#1B1B1B" transform="translate(0,0)"/>
<path d="" fill="#1B1B1B" transform="translate(0,0)"/>
<path d="" fill="#1B1B1B" transform="translate(0,0)"/>
<path d="" fill="#1B1B1B" transform="translate(0,0)"/>
<path d="" fill="#1B1B1B" transform="translate(0,0)"/>
<path d="" fill="#1B1B1B" transform="translate(0,0)"/>
<path d="" fill="#1B1B1B" transform="translate(0,0)"/>
<path d="" fill="#1B1B1B" transform="translate(0,0)"/>
<path d="" fill="#1B1B1B" transform="translate(0,0)"/>
<path d="" fill="#1B1B1B" transform="translate(0,0)"/>
<path d="" fill="#1B1B1B" transform="translate(0,0)"/>
<path d="" fill="#1B1B1B" transform="translate(0,0)"/>
<path d="" fill="#1B1B1B" transform="translate(0,0)"/>
<path d="" fill="#1B1B1B" transform="translate(0,0)"/>
<path d="" fill="#1B1B1B" transform="translate(0,0)"/>
<path d="" fill="#1B1B1B" transform="translate(0,0)"/>
<path d="" fill="#1B1B1B" transform="translate(0,0)"/>
<path d="" fill="#1B1B1B" transform="translate(0,0)"/>
<path d="" fill="#1B1B1B" transform="translate(0,0)"/>
<path d="" fill="#1B1B1B" transform="translate(0,0)"/>
<path d="" fill="#1B1B1B" transform="translate(0,0)"/>
<path d="" fill="#1B1B1B" transform="translate(0,0)"/>
<path d="" fill="#1B1B1B" transform="translate(0,0)"/>
<path d="" fill="#1B1B1B" transform="translate(0,0)"/>
<path d="" fill="#1B1B1B" transform="translate(0,0)"/>
<path d="" fill="#1B1B1B" transform="translate(0,0)"/>
<path d="" fill="#1B1B1B" transform="translate(0,0)"/>
<path d="" fill="#1B1B1B" transform="translate(0,0)"/>
<path d="" fill="#1B1B1B" transform="translate(0,0)"/>
<path d="" fill="#1B1B1B" transform="translate(0,0)"/>
<path d="" fill="#1B1B1B" transform="translate(0,0)"/>
<path d="" fill="#1B1B1B" transform="translate(0,0)"/>
<path d="" fill="#1B1B1B" transform="translate(0,0)"/>
<path d="" fill="#1B1B1B" transform="translate(0,0)"/>
<path d="" fill="#1B1B1B" transform="translate(0,0)"/>
<path d="" fill="#1B1B1B" transform="translate(0,0)"/>
<path d="" fill="#1B1B1B" transform="translate(0,0)"/>
<path d="" fill="#1B1B1B" transform="translate(0,0)"/>
<path d="" fill="#1B1B1B" transform="translate(0,0)"/>
<path d="" fill="#1B1B1B" transform="translate(0,0)"/>
<path d="" fill="#1B1B1B" transform="translate(0,0)"/>
<path d="" fill="#1B1B1B" transform="translate(0,0)"/>
<path d="" fill="#1B1B1B" transform="translate(0,0)"/>
<path d="" fill="#1B1B1B" transform="translate(0,0)"/>
<path d="" fill="#1B1B1B" transform="translate(0,0)"/>
<path d="" fill="#1B1B1B" transform="translate(0,0)"/>
<path d="" fill="#1B1B1B" transform="translate(0,0)"/>
<path d="" fill="#1B1B1B" transform="translate(0,0)"/>
<path d="" fill="#1B1B1B" transform="translate(0,0)"/>
<path d="" fill="#1B1B1B" transform="translate(0,0)"/>
<path d="" fill="#1B1B1B" transform="translate(0,0)"/>
<path d="" fill="#1B1B1B" transform="translate(0,0)"/>
<path d="" fill="#1B1B1B" transform="translate(0,0)"/>
<path d="" fill="#1B1B1B" transform="translate(0,0)"/>
<path d="" fill="#1B1B1B" transform="translate(0,0)"/>
<path d="" fill="#1B1B1B" transform="translate(0,0)"/>
<path d="" fill="#1B1B1B" transform="translate(0,0)"/>
<path d="" fill="#1B1B1B" transform="translate(0,0)"/>
<path d="" fill="#1B1B1B" transform="translate(0,0)"/>
<path d="" fill="#1B1B1B" transform="translate(0,0)"/>
<path d="" fill="#1B1B1B" transform="translate(0,0)"/>
<path d="" fill="#1B1B1B" transform="translate(0,0)"/>
<path d="" fill="#1B1B1B" transform="translate(0,0)"/>
<path d="" fill="#1B1B1B" transform="translate(0,0)"/>
<path d="" fill="#1B1B1B" transform="translate(0,0)"/>
<path d="" fill="#1B1B1B" transform="translate(0,0)"/>
<path d="" fill="#1B1B1B" transform="translate(0,0)"/>
<path d="" fill="#1B1B1B" transform="translate(0,0)"/>
<path d="" fill="#1B1B1B" transform="translate(0,0)"/>
<path d="" fill="#1B1B1B" transform="translate(0,0)"/>
<path d="" fill="#1B1B1B" transform="translate(0,0)"/>
<path d="" fill="#1B1B1B" transform="translate(0,0)"/>
<path d="" fill="#1B1B1B" transform="translate(0,0)"/>
<path d="" fill="#1B1B1B" transform="translate(0,0)"/>
<path d="" fill="#1B1B1B" transform="translate(0,0)"/>
<path d="" fill="#1B1B1B" transform="translate(0,0)"/>
<path d="" fill="#1B1B1B" transform="translate(0,0)"/>
<path d="" fill="#1B1B1B" transform="translate(0,0)"/>
<path d="" fill="#1B1B1B" transform="translate(0,0)"/>
<path d="" fill="#1B1B1B" transform="translate(0,0)"/>
<path d="" fill="#1B1B1B" transform="translate(0,0)"/>
<path d="" fill="#1B1B1B" transform="translate(0,0)"/>
<path d="" fill="#1B1B1B" transform="translate(0,0)"/>
<path d="" fill="#1B1B1B" transform="translate(0,0)"/>
<path d="" fill="#1B1B1B" transform="translate(0,0)"/>
<path d="" fill="#1B1B1B" transform="translate(0,0)"/>
<path d="" fill="#1B1B1B" transform="translate(0,0)"/>
<path d="" fill="#1B1B1B" transform="translate(0,0)"/>
<path d="" fill="#1B1B1B" transform="translate(0,0)"/>
<path d="" fill="#1B1B1B" transform="translate(0,0)"/>
<path d="" fill="#1B1B1B" transform="translate(0,0)"/>
<path d="" fill="#1B1B1B" transform="translate(0,0)"/>
<path d="" fill="#1B1B1B" transform="translate(0,0)"/>
<path d="" fill="#1B1B1B" transform="translate(0,0)"/>
<path d="" fill="#1B1B1B" transform="translate(0,0)"/>
<path d="" fill="#1B1B1B" transform="translate(0,0)"/>
<path d="" fill="#1B1B1B" transform="translate(0,0)"/>
<path d="" fill="#1B1B1B" transform="translate(0,0)"/>
<path d="" fill="#1B1B1B" transform="translate(0,0)"/>
<path d="" fill="#1B1B1B" transform="translate(0,0)"/>
<path d="" fill="#1B1B1B" transform="translate(0,0)"/>
<path d="" fill="#1B1B1B" transform="translate(0,0)"/>
<path d="" fill="#1B1B1B" transform="translate(0,0)"/>
<path d="" fill="#1B1B1B" transform="translate(0,0)"/>
<path d="" fill="#1B1B1B" transform="translate(0,0)"/>
<path d="" fill="#1B1B1B" transform="translate(0,0)"/>
<path d="" fill="#1B1B1B" transform="translate(0,0)"/>
<path d="" fill="#1B1B1B" transform="translate(0,0)"/>
<path d="" fill="#1B1B1B" transform="translate(0,0)"/>
<path d="" fill="#1B1B1B" transform="translate(0,0)"/>
<path d="" fill="#1B1B1B" transform="translate(0,0)"/>
<path d="" fill="#1B1B1B" transform="translate(0,0)"/>
<path d="" fill="#1B1B1B" transform="translate(0,0)"/>
<path d="" fill="#1B1B1B" transform="translate(0,0)"/>
<path d="" fill="#1B1B1B" transform="translate(0,0)"/>
<path d="" fill="#1B1B1B" transform="translate(0,0)"/>
<path d="" fill="#1B1B1B" transform="translate(0,0)"/>
<path d="" fill="#1B1B1B" transform="translate(0,0)"/>
<path d="" fill="#1B1B1B" transform="translate(0,0)"/>
<path d="" fill="#1B1B1B" transform="translate(0,0)"/>
<path d="" fill="#1B1B1B" transform="translate(0,0)"/>
<path d="" fill="#1B1B1B" transform="translate(0,0)"/>
<path d="" fill="#1B1B1B" transform="translate(0,0)"/>
<path d="" fill="#1B1B1B" transform="translate(0,0)"/>
<path d="" fill="#1B1B1B" transform="translate(0,0)"/>
<path d="" fill="#1B1B1B" transform="translate(0,0)"/>
<path d="" fill="#1B1B1B" transform="translate(0,0)"/>
<path d="" fill="#1B1B1B" transform="translate(0,0)"/>
<path d="" fill="#1B1B1B" transform="translate(0,0)"/>
<path d="" fill="#1B1B1B" transform="translate(0,0)"/>
<path d="" fill="#1B1B1B" transform="translate(0,0)"/>
<path d="" fill="#1B1B1B" transform="translate(0,0)"/>
<path d="" fill="#1B1B1B" transform="translate(0,0)"/>
<path d="" fill="#1B1B1B" transform="translate(0,0)"/>
<path d="" fill="#1B1B1B" transform="translate(0,0)"/>
<path d="" fill="#1B1B1B" transform="translate(0,0)"/>
<path d="" fill="#1B1B1B" transform="translate(0,0)"/>
<path d="" fill="#1B1B1B" transform="translate(0,0)"/>
<path d="" fill="#1B1B1B" transform="translate(0,0)"/>
<path d="" fill="#1B1B1B" transform="translate(0,0)"/>
<path d="" fill="#1B1B1B" transform="translate(0,0)"/>
<path d="" fill="#1B1B1B" transform="translate(0,0)"/>
<path d="" fill="#1B1B1B" transform="translate(0,0)"/>
<path d="" fill="#1B1B1B" transform="translate(0,0)"/>
<path d="" fill="#1B1B1B" transform="translate(0,0)"/>
<path d="" fill="#1B1B1B" transform="translate(0,0)"/>
<path d="" fill="#1B1B1B" transform="translate(0,0)"/>
<path d="" fill="#1B1B1B" transform="translate(0,0)"/>
<path d="" fill="#1B1B1B" transform="translate(0,0)"/>
<path d="" fill="#1B1B1B" transform="translate(0,0)"/>
<path d="" fill="#1B1B1B" transform="translate(0,0)"/>
<path d="" fill="#1B1B1B" transform="translate(0,0)"/>
<path d="" fill="#1B1B1B" transform="translate(0,0)"/>
<path d="" fill="#1B1B1B" transform="translate(0,0)"/>
<path d="" fill="#1B1B1B" transform="translate(0,0)"/>
<path d="" fill="#1B1B1B" transform="translate(0,0)"/>
<path d="" fill="#1B1B1B" transform="translate(0,0)"/>
<path d="" fill="#1B1B1B" transform="translate(0,0)"/>
<path d="" fill="#1B1B1B" transform="translate(0,0)"/>
<path d="" fill="#1B1B1B" transform="translate(0,0)"/>
<path d="" fill="#1B1B1B" transform="translate(0,0)"/>
<path d="" fill="#1B1B1B" transform="translate(0,0)"/>
<path d="" fill="#1B1B1B" transform="translate(0,0)"/>
<path d="" fill="#1B1B1B" transform="translate(0,0)"/>
<path d="" fill="#1B1B1B" transform="translate(0,0)"/>
<path d="" fill="#1B1B1B" transform="translate(0,0)"/>
<path d="" fill="#1B1B1B" transform="translate(0,0)"/>
<path d="" fill="#1B1B1B" transform="translate(0,0)"/>
<path d="" fill="#1B1B1B" transform="translate(0,0)"/>
<path d="" fill="#1B1B1B" transform="translate(0,0)"/>
<path d="" fill="#1B1B1B" transform="translate(0,0)"/>
<path d="" fill="#1B1B1B" transform="translate(0,0)"/>
<path d="" fill="#1B1B1B" transform="translate(0,0)"/>
<path d="" fill="#1B1B1B" transform="translate(0,0)"/>
<path d="" fill="#1B1B1B" transform="translate(0,0)"/>
<path d="" fill="#1B1B1B" transform="translate(0,0)"/>
<path d="" fill="#1B1B1B" transform="translate(0,0)"/>
<path d="" fill="#1B1B1B" transform="translate(0,0)"/>
<path d="" fill="#1B1B1B" transform="translate(0,0)"/>
<path d="" fill="#1B1B1B" transform="translate(0,0)"/>
<path d="" fill="#1B1B1B" transform="translate(0,0)"/>
<path d="" fill="#1B1B1B" transform="translate(0,0)"/>
<path d="" fill="#1B1B1B" transform="translate(0,0)"/>
<path d="" fill="#1B1B1B" transform="translate(0,0)"/>
<path d="" fill="#1B1B1B" transform="translate(0,0)"/>
<path d="" fill="#1B1B1B" transform="translate(0,0)"/>
<path d="" fill="#1B1B1B" transform="translate(0,0)"/>
<path d="" fill="#1B1B1B" transform="translate(0,0)"/>
<path d="" fill="#1B1B1B" transform="translate(0,0)"/>
<path d="" fill="#1B1B1B" transform="translate(0,0)"/>
<path d="" fill="#1B1B1B" transform="translate(0,0)"/>
<path d="" fill="#1B1B1B" transform="translate(0,0)"/>
<path d="" fill="#1B1B1B" transform="translate(0,0)"/>
<path d="" fill="#1B1B1B" transform="translate(0,0)"/>
<path d="" fill="#1B1B1B" transform="translate(0,0)"/>
<path d="" fill="#1B1B1B" transform="translate(0,0)"/>
<path d="" fill="#1B1B1B" transform="translate(0,0)"/>
<path d="" fill="#1B1B1B" transform="translate(0,0)"/>
<path d="" fill="#1B1B1B" transform="translate(0,0)"/>
<path d="" fill="#1B1B1B" transform="translate(0,0)"/>
<path d="" fill="#1B1B1B" transform="translate(0,0)"/>
<path d="" fill="#1B1B1B" transform="translate(0,0)"/>
<path d="" fill="#1B1B1B" transform="translate(0,0)"/>
<path d="" fill="#1B1B1B" transform="translate(0,0)"/>
<path d="" fill="#1B1B1B" transform="translate(0,0)"/>
<path d="" fill="#1B1B1B" transform="translate(0,0)"/>
<path d="" fill="#1B1B1B" transform="translate(0,0)"/>
<path d="" fill="#1B1B1B" transform="translate(0,0)"/>
<path d="" fill="#1B1B1B" transform="translate(0,0)"/>
<path d="" fill="#1B1B1B" transform="translate(0,0)"/>
<path d="" fill="#1B1B1B" transform="translate(0,0)"/>
<path d="" fill="#1B1B1B" transform="translate(0,0)"/>
<path d="" fill="#1B1B1B" transform="translate(0,0)"/>
<path d="" fill="#1B1B1B" transform="translate(0,0)"/>
<path d="" fill="#1B1B1B" transform="translate(0,0)"/>
<path d="" fill="#1B1B1B" transform="translate(0,0)"/>
<path d="" fill="#1B1B1B" transform="translate(0,0)"/>
<path d="" fill="#1B1B1B" transform="translate(0,0)"/>
<path d="" fill="#1B1B1B" transform="translate(0,0)"/>
<path d="" fill="#1B1B1B" transform="translate(0,0)"/>
<path d="" fill="#1B1B1B" transform="translate(0,0)"/>
<path d="" fill="#1B1B1B" transform="translate(0,0)"/>
<path d="" fill="#1B1B1B" transform="translate(0,0)"/>
<path d="" fill="#1B1B1B" transform="translate(0,0)"/>
<path d="" fill="#1B1B1B" transform="translate(0,0)"/>
<path d="" fill="#1B1B1B" transform="translate(0,0)"/>
<path d="" fill="#1B1B1B" transform="translate(0,0)"/>
<path d="" fill="#1B1B1B" transform="translate(0,0)"/>
<path d="" fill="#1B1B1B" transform="translate(0,0)"/>
<path d="" fill="#1B1B1B" transform="translate(0,0)"/>
<path d="" fill="#1B1B1B" transform="translate(0,0)"/>
<path d="" fill="#1B1B1B" transform="translate(0,0)"/>
<path d="" fill="#1B1B1B" transform="translate(0,0)"/>
<path d="" fill="#1B1B1B" transform="translate(0,0)"/>
<path d="" fill="#1B1B1B" transform="translate(0,0)"/>
<path d="" fill="#1B1B1B" transform="translate(0,0)"/>
<path d="" fill="#1B1B1B" transform="translate(0,0)"/>
<path d="" fill="#1B1B1B" transform="translate(0,0)"/>
<path d="" fill="#1B1B1B" transform="translate(0,0)"/>
<path d="" fill="#1B1B1B" transform="translate(0,0)"/>
<path d="" fill="#1B1B1B" transform="translate(0,0)"/>
<path d="" fill="#1B1B1B" transform="translate(0,0)"/>
<path d="" fill="#1B1B1B" transform="translate(0,0)"/>
<path d="" fill="#1B1B1B" transform="translate(0,0)"/>
<path d="" fill="#1B1B1B" transform="translate(0,0)"/>
<path d="" fill="#1B1B1B" transform="translate(0,0)"/>
<path d="" fill="#1B1B1B" transform="translate(0,0)"/>
<path d="" fill="#1B1B1B" transform="translate(0,0)"/>
<path d="" fill="#1B1B1B" transform="translate(0,0)"/>
<path d="" fill="#1B1B1B" transform="translate(0,0)"/>
<path d="" fill="#1B1B1B" transform="translate(0,0)"/>
<path d="" fill="#1B1B1B" transform="translate(0,0)"/>
<path d="" fill="#1B1B1B" transform="translate(0,0)"/>
<path d="" fill="#1B1B1B" transform="translate(0,0)"/>
<path d="" fill="#1B1B1B" transform="translate(0,0)"/>
<path d="" fill="#1B1B1B" transform="translate(0,0)"/>
<path d="" fill="#1B1B1B" transform="translate(0,0)"/>
<path d="" fill="#1B1B1B" transform="translate(0,0)"/>
<path d="" fill="#1B1B1B" transform="translate(0,0)"/>
<path d="" fill="#1B1B1B" transform="translate(0,0)"/>
<path d="" fill="#1B1B1B" transform="translate(0,0)"/>
<path d="" fill="#1B1B1B" transform="translate(0,0)"/>
<path d="" fill="#1B1B1B" transform="translate(0,0)"/>
<path d="" fill="#1B1B1B" transform="translate(0,0)"/>
<path d="" fill="#1B1B1B" transform="translate(0,0)"/>
<path d="" fill="#1B1B1B" transform="translate(0,0)"/>
<path d="" fill="#1B1B1B" transform="translate(0,0)"/>
<path d="" fill="#1B1B1B" transform="translate(0,0)"/>
<path d="" fill="#1B1B1B" transform="translate(0,0)"/>
<path d="" fill="#1B1B1B" transform="translate(0,0)"/>
<path d="" fill="#1B1B1B" transform="translate(0,0)"/>
<path d="" fill="#1B1B1B" transform="translate(0,0)"/>
<path d="" fill="#1B1B1B" transform="translate(0,0)"/>
<path d="" fill="#1B1B1B" transform="translate(0,0)"/>
<path d="" fill="#1B1B1B" transform="translate(0,0)"/>
<path d="" fill="#1B1B1B" transform="translate(0,0)"/>
<path d="" fill="#1B1B1B" transform="translate(0,0)"/>
<path d="" fill="#1B1B1B" transform="translate(0,0)"/>
<path d="" fill="#1B1B1B" transform="translate(0,0)"/>
<path d="" fill="#1B1B1B" transform="translate(0,0)"/>
<path d="" fill="#1B1B1B" transform="translate(0,0)"/>
<path d="" fill="#1B1B1B" transform="translate(0,0)"/>
<path d="" fill="#1B1B1B" transform="translate(0,0)"/>
<path d="" fill="#1B1B1B" transform="translate(0,0)"/>
<path d="" fill="#1B1B1B" transform="translate(0,0)"/>
<path d="" fill="#1B1B1B" transform="translate(0,0)"/>
<path d="" fill="#1B1B1B" transform="translate(0,0)"/>
<path d="" fill="#1B1B1B" transform="translate(0,0)"/>
<path d="" fill="#1B1B1B" transform="translate(0,0)"/>
<path d="" fill="#1B1B1B" transform="translate(0,0)"/>
<path d="" fill="#1B1B1B" transform="translate(0,0)"/>
<path d="" fill="#1B1B1B" transform="translate(0,0)"/>
<path d="" fill="#1B1B1B" transform="translate(0,0)"/>
<path d="" fill="#1B1B1B" transform="translate(0,0)"/>
<path d="" fill="#1B1B1B" transform="translate(0,0)"/>
<path d="" fill="#1B1B1B" transform="translate(0,0)"/>
<path d="" fill="#1B1B1B" transform="translate(0,0)"/>
<path d="" fill="#1B1B1B" transform="translate(0,0)"/>
<path d="" fill="#1B1B1B" transform="translate(0,0)"/>
<path d="" fill="#1B1B1B" transform="translate(0,0)"/>
<path d="" fill="#1B1B1B" transform="translate(0,0)"/>
<path d="" fill="#1B1B1B" transform="translate(0,0)"/>
<path d="" fill="#1B1B1B" transform="translate(0,0)"/>
<path d="" fill="#1B1B1B" transform="translate(0,0)"/>
<path d="" fill="#1B1B1B" transform="translate(0,0)"/>
<path d="" fill="#1B1B1B" transform="translate(0,0)"/>
<path d="" fill="#1B1B1B" transform="translate(0,0)"/>
<path d="" fill="#1B1B1B" transform="translate(0,0)"/>
</svg>
